<?xml version="1.0" encoding="UTF-8" standalone="no"?>
<svg
   width="4096"
   height="4096"
   version="1.1"
   id="svg2"
   xmlns="http://www.w3.org/2000/svg"
   xmlns:svg="http://www.w3.org/2000/svg">
  <defs
     id="defs2" />
  <path
     fill="#E26919"
     d="m 1990.012,500.48 c 33.8,-0.44 88.86,-6.54 120.052,6.132 42.908,17.428 52.1,171.58 101.54,200.592 25.692,15.076 61.576,16.176 90.332,21.576 24.108,4.532 55.572,16.572 79.572,13.74 64.692,-7.64 105.064,-138.92 166.536,-154.808 22.624,-5.852 90.176,19.976 111.336,32.484 68.352,40.396 6.544,160.836 23.916,224.656 2.452,9 6.308,17.78 12.876,24.544 14.356,14.772 91.784,61.036 114.932,74.608 11.008,6.456 22.228,12.724 35.264,13.34 50.596,2.396 125.616,-71.164 178.74,-83.708 16.076,-3.796 28.648,-1.148 42.28,7.86 21.336,14.104 73.304,58.42 81.46,81.084 20.064,55.748 -82.76,156.708 -67.204,217.788 5.652,22.196 28.4,44.244 41.664,62.752 13.892,19.388 27.144,45.452 47.428,58.548 58.08,37.5 174.856,-35.056 227.788,0.24 7.26,4.844 12.96,11.26 17.676,18.56 11.436,17.688 39.552,82.4 43.824,102.94 -16.492,52.248 -69.612,81.656 -107.84,117.46 -16.908,15.84 -35.072,35.152 -35.312,59.772 -0.268,27.38 13.216,56.292 20.436,82.428 6.076,21.984 7.736,48.576 20.672,67.8 36.204,53.788 171.812,31.112 209.628,71.864 24.428,26.328 21.72,101.264 20.128,135.188 -34.508,61.588 -171.08,70.46 -194.428,122.608 -9.504,21.224 -6.612,52.64 -9.4,75.688 -3.076,25.388 -11.384,54.088 -3.88,79.252 17.268,57.9 148.204,85.188 165.696,140.224 7.628,24.008 -15.868,104.172 -28.884,126.328 -6.744,11.484 -17.9,18.464 -30.38,22.388 -43.064,13.54 -126.24,1.892 -173.928,14.296 -18.452,4.8 -27.996,14.32 -37.672,30.316 -11.588,19.168 -21.56,39.948 -31.544,60 -43.98,88.304 -7.884,117.32 43.456,187.152 12.3,16.724 26.708,34.728 31.288,55.412 2.796,12.644 0.344,25.588 -6.624,36.512 -14.544,22.796 -46.368,68.452 -69.004,81.324 -55.648,31.652 -160.272,-62.308 -222.068,-47.688 -10.392,2.46 -19.808,7.844 -28.28,14.216 -14.984,11.272 -88.448,83.08 -95.044,94.864 -23.52,42.04 12.804,121.288 24.604,164.656 5.692,20.932 9.452,42.648 -2.604,62.244 -16.712,27.172 -82.756,65.744 -114.544,74.236 -66.352,-20.984 -136.284,-124.224 -197.528,-120.28 -26.168,1.684 -51.788,18.616 -75.792,28.368 -23.34,9.48 -54.336,17.972 -72.664,35.744 -42.488,41.192 -14.464,164.74 -54.484,206.328 -5.744,5.972 -12.648,10.332 -20.376,13.268 -10.22,3.88 -85.756,19.496 -96.3,19.632 -14.236,0.184 -26.936,-5.304 -37.312,-14.92 -38.232,-35.416 -54.94,-112.02 -95.168,-151.844 -17.636,-17.456 -32.732,-20.516 -56.372,-20.16 -35.012,0.424 -114.024,-5.708 -143.368,3.588 -71.08,22.528 -80.02,161.052 -145.868,181.428 -6.736,2.088 -13.672,2.676 -20.692,2.156 -13.632,-1.004 -84.484,-17.032 -94.256,-22.24 -51.404,-27.392 -39.424,-131.584 -54.48,-184.716 -5.684,-20.072 -15.828,-33.408 -34.192,-43.288 -18.584,-9.992 -109.112,-51.352 -127.844,-53.784 -10.432,-1.356 -21.772,-0.076 -31.524,3.948 -40.316,16.64 -87.596,70.348 -127.388,96.396 -14.552,9.528 -28.552,15.332 -45.136,20.428 -37.636,-11.896 -97.152,-48.016 -117.528,-82.112 -0.716,-13.428 -0.724,-26.308 1.604,-39.616 7.68,-43.94 46.42,-134.18 30.62,-174.72 -2.748,-7.056 -7.032,-13.624 -11.976,-19.34 -9.58,-11.068 -21.948,-20.016 -32.552,-30.132 -21.92,-20.912 -41.544,-47.724 -69.924,-60.232 -9.856,-4.34 -20.152,-6.416 -30.908,-5.364 -31.74,3.096 -95.8,33.004 -129.392,45.06 -21.856,7.844 -47.64,16.116 -69.776,4.924 -19.508,-9.856 -66.48,-69.692 -73.42,-90.748 q -1.316,-3.9 -2.028,-7.956 -0.712,-4.056 -0.8,-8.172 -0.088,-4.116 0.452,-8.196 0.536,-4.084 1.688,-8.036 c 11.628,-40.676 66.748,-94.676 87.856,-136.2 9.784,-19.248 11.568,-37.292 4.544,-57.832 -7.508,-21.968 -21.34,-44.332 -31.756,-65.164 -9.612,-19.224 -19.036,-41.168 -34.976,-56.108 -29.316,-27.48 -109.148,-19.44 -149.512,-21.884 -18.044,-1.092 -38.332,-0.796 -54.816,-9.064 -15.548,-7.8 -24.292,-20.448 -29.912,-36.548 -8.784,-25.148 -26.292,-69.652 -24.584,-95.84 4.54,-69.64 141.14,-89.588 169.204,-151.508 3.612,-7.968 5.348,-16.388 5.672,-25.108 0.576,-15.516 -4.024,-31.76 -5.684,-47.236 -2.864,-26.716 -0.424,-58.232 -10.576,-83.36 -16.412,-40.628 -106.232,-62.44 -145.468,-80.24 -21.808,-9.892 -42.496,-22.696 -50.768,-46.516 -6.084,-17.508 1.368,-105.884 10.364,-122.64 18.956,-35.312 137.32,-43.2 176.808,-54.772 17.684,-5.184 34.2,-14.932 42.892,-31.712 12.372,-23.876 17.32,-53.492 24.308,-79.344 5.7,-21.088 16.172,-46.8 14.248,-68.816 -5.416,-62.036 -121.004,-102.932 -137.516,-163.584 -1.712,-6.296 -2.172,-12.796 -0.844,-19.208 4.608,-22.244 33.52,-78.996 46.152,-99.648 6.472,-10.58 14.5,-17.336 26.656,-20.528 46.192,-12.132 137.076,29.484 189.284,15.6 11.044,-2.936 20.816,-8.896 29.292,-16.464 14.264,-12.736 64.08,-79.48 74.116,-96.784 33.108,-57.06 -42.276,-140.28 -56.384,-197.236 -4.148,-16.752 -2.488,-34.588 6.988,-49.332 10.408,-16.2 61.7,-65.224 78.16,-75.012 7.432,-4.42 15.592,-6.084 23.936,-7.856 25.664,8.22 49.996,25.232 73.488,38.472 30.8,17.36 94.628,60.136 130.668,49.176 26.908,-8.18 51.644,-30.108 75.192,-45.264 20.56,-13.236 50.768,-27.688 66.1,-46.48 39.08,-47.892 -17.124,-173.732 10.44,-219.992 14.736,-24.728 82.304,-48.944 110.944,-56.084 69.336,-17.288 113.9,116.712 168.32,146.816 10.588,5.86 22.392,8.36 34.448,8.084 18.12,-0.412 121.936,-22.208 141.232,-28.608 11.82,-3.92 22.808,-9.472 31.14,-18.936 30.828,-34.996 44.828,-122.54 68.304,-166.956 8.144,-15.408 15.704,-22.132 32.24,-27.164 z m 104.776,2686.796 q 28.316,-1.292 56.536,-3.972 28.216,-2.676 56.268,-6.736 28.056,-4.06 55.876,-9.492 27.82,-5.432 55.34,-12.22 27.52,-6.792 54.676,-14.92 27.152,-8.132 53.876,-17.584 26.72,-9.456 52.948,-20.208 26.228,-10.752 51.896,-22.776 25.668,-12.028 50.712,-25.296 25.048,-13.272 49.412,-27.756 24.368,-14.48 47.996,-30.144 23.624,-15.66 46.452,-32.46 22.832,-16.8 44.808,-34.7 21.98,-17.904 43.052,-36.86 21.076,-18.956 41.192,-38.924 20.12,-19.968 39.232,-40.9 19.116,-20.928 37.18,-42.772 18.064,-21.844 35.036,-44.544 16.972,-22.704 32.812,-46.212 15.836,-23.508 30.5,-47.764 14.668,-24.256 28.124,-49.204 13.46,-24.948 25.676,-50.524 12.22,-25.576 23.168,-51.72 10.948,-26.148 20.604,-52.796 9.652,-26.652 17.988,-53.744 8.332,-27.092 15.328,-54.564 6.996,-27.468 12.636,-55.244 5.64,-27.78 9.908,-55.8 4.272,-28.024 7.16,-56.22 2.892,-28.2 4.396,-56.504 1.504,-28.304 1.62,-56.652 0.112,-28.344 -1.164,-56.66 -1.276,-28.316 -3.94,-56.536 -2.664,-28.22 -6.712,-56.276 -4.044,-28.056 -9.46,-55.876 -5.416,-27.824 -12.192,-55.348 -6.772,-27.524 -14.888,-54.684 -8.12,-27.156 -17.556,-53.884 -9.44,-26.728 -20.18,-52.96 -10.736,-26.232 -22.748,-51.908 -12.016,-25.672 -25.272,-50.728 -13.256,-25.052 -27.728,-49.428 -14.468,-24.372 -30.116,-48.008 -15.652,-23.632 -32.44,-46.472 -16.788,-22.84 -34.676,-44.824 -17.888,-21.988 -36.836,-43.072 -18.944,-21.084 -38.904,-41.212 -19.956,-20.128 -40.876,-39.256 -20.92,-19.124 -42.756,-37.2 -21.832,-18.076 -44.524,-35.06 -22.696,-16.984 -46.196,-32.836 -23.5,-15.848 -47.748,-30.528 -24.248,-14.676 -49.188,-28.148 -24.94,-13.472 -50.512,-25.704 -25.568,-12.232 -51.708,-23.196 -26.14,-10.96 -52.784,-20.628 -26.648,-9.668 -53.736,-18.016 -27.088,-8.348 -54.552,-15.36 -27.464,-7.008 -55.24,-12.664 -27.776,-5.652 -55.796,-9.94 -28.02,-4.284 -56.216,-7.188 -28.196,-2.908 -56.5,-4.424 -28.304,-1.52 -56.648,-1.648 -28.348,-0.128 -56.664,1.132 -28.336,1.264 -56.576,3.916 -28.24,2.652 -56.316,6.684 -28.076,4.036 -55.92,9.444 -27.844,5.408 -55.388,12.176 -27.548,6.768 -54.724,14.88 -27.18,8.112 -53.932,17.548 -26.748,9.44 -53,20.176 -26.252,10.74 -51.948,22.752 -25.696,12.012 -50.768,25.276 -25.076,13.26 -49.468,27.732 -24.392,14.476 -48.044,30.132 -23.652,15.656 -46.508,32.452 -22.856,16.796 -44.86,34.696 -22.004,17.9 -43.104,36.856 -21.1,18.956 -41.24,38.928 -20.144,19.968 -39.284,40.904 -19.136,20.936 -37.224,42.784 -18.088,21.848 -35.084,44.556 -16.992,22.712 -32.852,46.228 -15.856,23.52 -30.544,47.784 -14.684,24.268 -28.16,49.228 -13.476,24.956 -25.712,50.548 -12.232,25.588 -23.196,51.748 -10.964,26.16 -20.632,52.828 -9.668,26.664 -18.012,53.776 -8.348,27.108 -15.352,54.592 -7.004,27.488 -12.652,55.284 -5.648,27.796 -9.928,55.836 -4.276,28.04 -7.172,56.256 -2.896,28.216 -4.4,56.54 -1.508,28.324 -1.624,56.688 -0.112,28.364 1.164,56.7 1.276,28.336 3.944,56.576 2.668,28.236 6.716,56.312 4.052,28.072 9.472,55.912 5.424,27.844 12.208,55.384 6.78,27.54 14.908,54.716 8.128,27.176 17.576,53.92 9.452,26.744 20.204,52.992 10.752,26.248 22.78,51.936 12.028,25.688 25.3,50.752 13.272,25.068 27.76,49.452 14.488,24.388 30.156,48.032 15.668,23.644 32.476,46.492 16.812,22.848 34.72,44.84 17.912,21.996 36.88,43.084 18.968,21.088 38.948,41.22 19.98,20.132 40.924,39.26 20.948,19.128 42.804,37.204 21.86,18.076 44.58,35.06 22.716,16.98 46.244,32.828 23.524,15.844 47.8,30.516 24.272,14.672 49.24,28.136 24.964,13.464 50.56,25.684 25.596,12.22 51.764,23.172 26.164,10.948 52.836,20.6 26.672,9.656 53.784,17.988 27.112,8.332 54.604,15.32 27.488,6.992 55.288,12.628 27.8,5.632 55.84,9.892 28.044,4.264 56.26,7.144 28.22,2.88 56.544,4.372 28.324,1.492 56.688,1.592 28.364,0.1 56.7,-1.192 z"
     id="path1"
     style="fill:#e55700;fill-opacity:1;stroke-width:4" />
  <path
     fill="#E26919"
     d="m 2158.616,1308.624 c 26.192,-2.4 127.668,7.76 151.632,16.156 14.012,4.908 27.448,13.86 33.424,27.972 8.98,21.2 -0.912,41.424 -8.692,61.136 9.852,36.844 30.032,73.436 46.484,107.92 l 81.888,171.908 c 16.624,34.78 35.64,70.032 48.528,106.352 70.092,-34.176 159.12,-40.704 234.576,-23.576 86.604,19.66 164.86,65.888 212.76,142.324 39.6,63.188 49.136,129.06 49.284,202.144 0.048,24.284 0.768,47.664 -4.78,71.464 -135.256,-3.06 -271.376,-0.632 -406.692,-0.028 -26.676,-46.312 -50.028,-96.7 -73.012,-145.048 -15.436,-32.472 -29.5,-63.844 -48.896,-94.3 -10.432,17.232 -24.72,33.1 -36.884,49.208 -30.788,40.76 -52.476,87.544 -59.808,138.376 -10.188,70.624 5.196,143.268 48.268,200.588 31.816,42.336 83.496,74.872 136.332,81.952 77.264,10.352 158.22,-14.548 221.628,-58.484 23.776,-16.472 44.992,-36.444 67.944,-54.052 26.672,26.316 58.428,53.048 80.116,83.436 -18.448,18.224 -36.372,36.672 -57.452,51.9 -96.52,69.732 -216.572,102.72 -334.76,83.38 q -4.44,-0.748 -8.86,-1.604 -4.42,-0.856 -8.816,-1.82 -4.4,-0.968 -8.772,-2.044 -4.372,-1.076 -8.712,-2.26 -4.344,-1.184 -8.66,-2.476 -4.312,-1.288 -8.592,-2.688 -4.28,-1.396 -8.524,-2.904 -4.24,-1.504 -8.448,-3.112 -4.204,-1.608 -8.368,-3.324 -4.16,-1.712 -8.28,-3.528 -4.12,-1.816 -8.196,-3.736 -4.072,-1.92 -8.096,-3.936 -4.024,-2.02 -7.996,-4.14 -3.972,-2.116 -7.892,-4.336 -3.916,-2.216 -7.78,-4.528 -3.864,-2.316 -7.664,-4.724 -3.804,-2.408 -7.548,-4.912 -3.744,-2.504 -7.42,-5.096 -3.68,-2.596 -7.292,-5.284 -3.616,-2.684 -7.16,-5.46 -3.548,-2.772 -7.02,-5.636 -3.476,-2.86 -6.88,-5.808 -3.404,-2.948 -6.732,-5.98 -3.328,-3.032 -6.58,-6.144 -3.252,-3.116 -6.428,-6.308 -3.172,-3.192 -6.268,-6.464 -3.092,-3.272 -6.104,-6.62 -3.008,-3.344 -5.936,-6.768 -2.928,-3.42 -5.768,-6.912 -2.84,-3.492 -5.596,-7.056 -2.752,-3.56 -5.416,-7.192 -2.664,-3.628 -5.236,-7.324 c -54.272,-77.212 -71.152,-175.404 -55.068,-267.672 20.604,-118.188 88.096,-205.644 184.304,-273.596 -27.348,-64.8 -58.068,-128.18 -85.38,-193.032 -13.664,-1.024 -27.428,-3.748 -40.976,-5.848 -15.584,34.316 -34.972,67.32 -52.96,100.456 l -96.504,177.336 -79.416,147.996 c -16.864,31.592 -32.684,66.512 -54.344,95 -11.752,15.46 -31.176,28.328 -48.96,35.92 -20.564,8.784 -46.42,14.684 -67.676,5.356 -8.768,-3.848 -11.616,-6.816 -15.892,-15.312 -18.748,-37.272 -27.172,-79.764 -41.432,-118.916 -20.784,-57.068 -45.644,-113.6 -68.296,-170.016 -15.496,20.628 -32.64,40.556 -50.236,59.416 42.308,89.396 43,140.184 37.216,236.276 l -21.344,-0.46 c -122.172,-0.04 -244.44,-1.092 -366.596,0.408 0.036,-27.148 3.956,-62.288 -0.34,-88.428 -0.648,-3.964 -0.78,-4.316 0.14,-8.548 15.276,-8.084 231.26,-3.488 264.724,-3.48 -2.472,-44.08 -35.76,-116.668 -66.776,-148.672 -38.708,-39.94 -99.16,-62.968 -154.364,-63.552 -66.1,-0.7 -133.104,28.604 -180.084,74.632 -52.688,51.62 -76.344,111.844 -87.156,183.72 -2.884,19.168 -5.88,38.792 -5.912,58.196 -0.096,59.44 26.488,122.852 68.3,164.772 43.7,43.816 97.652,64.28 159.028,64.032 94.568,-0.38 170.06,-49.864 234.544,-115 l 86.24,85.736 c -62.444,65.904 -149.144,110.744 -236.664,131.732 -95.788,22.976 -189.636,11.28 -273.884,-41.228 q -3.604,-2.276 -7.148,-4.644 -3.544,-2.364 -7.032,-4.816 -3.484,-2.452 -6.912,-4.988 -3.424,-2.536 -6.788,-5.152 -3.36,-2.62 -6.66,-5.32 -3.296,-2.7 -6.524,-5.48 -3.232,-2.78 -6.392,-5.64 -3.16,-2.86 -6.252,-5.796 -3.088,-2.932 -6.108,-5.944 -3.016,-3.008 -5.96,-6.092 -2.94,-3.084 -5.808,-6.236 -2.864,-3.156 -5.652,-6.38 -2.788,-3.224 -5.496,-6.512 -2.712,-3.292 -5.336,-6.648 -2.628,-3.356 -5.172,-6.776 -2.544,-3.42 -5.004,-6.9 -2.46,-3.48 -4.832,-7.02 -2.376,-3.54 -4.66,-7.136 -2.288,-3.596 -4.484,-7.248 -2.2,-3.652 -4.304,-7.356 -2.108,-3.704 -4.124,-7.46 -2.016,-3.752 -3.94,-7.556 -1.924,-3.804 -3.752,-7.652 -1.832,-3.852 -3.568,-7.744 -1.732,-3.892 -3.372,-7.824 -1.64,-3.936 -3.184,-7.908 -1.54,-3.972 -2.984,-7.984 -1.448,-4.008 -2.792,-8.052 -1.348,-4.044 -2.592,-8.12 -1.248,-4.076 -2.396,-8.18 -1.144,-4.104 -2.192,-8.236 -1.044,-4.132 -1.988,-8.288 c -23.492,-104.236 0.32,-224.148 57.912,-313.64 55.208,-85.784 140.692,-155.088 241.692,-176.936 q 4.624,-1.036 9.268,-1.956 4.648,-0.916 9.32,-1.716 4.668,-0.8 9.356,-1.48 4.688,-0.684 9.392,-1.244 4.704,-0.56 9.42,-1 4.716,-0.44 9.444,-0.76 4.724,-0.32 9.46,-0.52 4.732,-0.2 9.468,-0.28 4.736,-0.08 9.472,-0.036 4.74,0.04 9.472,0.204 4.736,0.164 9.464,0.448 4.728,0.28 9.448,0.684 4.72,0.404 9.428,0.928 4.708,0.524 9.404,1.168 4.692,0.644 9.368,1.408 4.676,0.764 9.328,1.644 4.656,0.884 9.284,1.884 4.632,1 9.236,2.12 4.604,1.116 9.176,2.352 4.572,1.236 9.112,2.588 4.544,1.352 9.048,2.82 4.504,1.464 8.968,3.048 4.464,1.58 8.888,3.276 4.424,1.692 8.804,3.5 4.38,1.808 8.712,3.724 4.332,1.92 8.612,3.948 4.28,2.024 8.512,4.16 4.228,2.14 8.4,4.38 4.172,2.244 8.284,4.592 4.116,2.352 8.168,4.804 4.052,2.452 8.04,5.008 3.988,2.556 7.912,5.212 c 24.372,16.64 44.192,39.648 68.92,55.132 0.712,0.444 1.436,0.864 2.152,1.3 18.416,-15.972 35.936,-32.752 54.652,-48.448 -10.996,-30.744 -25.992,-60.416 -39.54,-90.128 -21.3,-46.724 -42.384,-93.232 -65.456,-139.132 -34.1,0.01 -60.556,-9.992 -90.544,-24.98 -22.696,-11.34 -54.316,-26.54 -62.084,-52.876 -1.868,-6.344 -1.372,-11.964 2.136,-17.728 5.62,-9.224 20.268,-13.468 30.088,-15.328 28.248,-5.36 89.168,-1.432 121.072,-1.4 50.708,0.052 118.796,-3.744 167.3,1.34 10.008,1.052 21.44,2.992 29.624,9.332 5.432,4.204 5.968,8.52 6.628,15.004 -8.52,11.812 -49.58,17.944 -63.652,22.7 q -17.168,5.856 -33.1,14.532 c -12.924,7.144 -24.82,20.324 -35.764,30.36 24.648,40.724 37.996,88.724 62.924,129.468 11.608,18.98 27.14,30.932 49.14,35.476 12.176,2.516 25.472,0.416 36.724,-4.664 29.628,-13.376 56.044,-32.22 83.396,-49.512 l 127.884,-80.248 q 59.248,-36.532 119.396,-71.568 c 28.448,-16.412 58.104,-31.764 85.32,-50.148 -17.8,-37.26 -29.52,-78.108 -49.028,-114.24 -28.16,0.392 -63.164,5.06 -87.768,-10.984 -11.324,-7.38 -21.376,-18.892 -23.932,-32.504 -1.468,-7.844 0.032,-15.656 4.732,-22.152 8.184,-11.316 21.144,-11.988 33.832,-13.676 z m -321.752,542.424 c 29.64,52.816 48,111.836 71.244,167.532 8.028,24.66 11.972,46.36 34.484,61.58 l 24.372,-0.42 c 5.876,-3.4 14.916,-7.46 18.704,-13.208 16.736,-25.392 29.532,-54.36 43.692,-81.324 22.256,-42.38 45.504,-84.404 68.364,-126.476 l 87.848,-159.492 c 8.872,-16.116 24.316,-35.696 28.464,-53.3 1.064,-4.508 -0.088,-6.12 -1.816,-10.224 l -3.436,-2.028 c -31.14,23.04 -65.948,41.816 -99.412,61.284 l -181.636,104.384 c -30.26,17.236 -61.64,32.748 -90.872,51.692 z m 722.464,49.136 c 28.892,62.056 53.316,127.508 85.032,188.092 56.888,-0.524 113.472,-3.256 170.428,-2.552 15.188,0.504 58.212,7.548 69.668,-0.14 7.172,-11.316 -1.008,-35.744 -3.92,-48.596 q -1.064,-4.668 -2.36,-9.276 -1.292,-4.608 -2.816,-9.144 -1.52,-4.536 -3.268,-8.992 -1.748,-4.456 -3.712,-8.82 -1.968,-4.364 -4.148,-8.624 -2.18,-4.26 -4.572,-8.408 -2.392,-4.148 -4.984,-8.168 -2.596,-4.024 -5.384,-7.912 -2.792,-3.888 -5.776,-7.632 -2.98,-3.744 -6.144,-7.336 -3.164,-3.588 -6.504,-7.02 -3.34,-3.428 -6.844,-6.688 -3.508,-3.256 -7.168,-6.336 -3.664,-3.08 -7.476,-5.976 -3.816,-2.892 -7.768,-5.592 -3.952,-2.7 -8.032,-5.2 c -44.02,-27.296 -104.68,-39.24 -155.984,-35.1 -27.82,2.964 -53.196,6.252 -78.268,19.42 z"
     id="path2"
     style="fill:#e55700;fill-opacity:1;stroke-width:4" />
</svg>
