<?xml version="1.0" encoding="UTF-8" standalone="no"?>
<svg
   width="4236"
   height="4236"
   version="1.1"
   id="svg28"
   xmlns="http://www.w3.org/2000/svg"
   xmlns:svg="http://www.w3.org/2000/svg">
  <defs
     id="defs28" />
  <path
     fill="#E26919"
     d="m 3792.7104,2241.2087 c 8.4141,-0.9556 16.9564,-1.9898 25.4367,-1.5016 7.3137,0.4219 12.104,2.0394 17.0515,7.6074 1.5265,7.231 0.3475,9.9199 -3.9133,15.9388 -12.5012,17.6514 -29.1763,32.5229 -42.9516,49.2311 -45.3178,54.9687 -92.0048,108.6716 -138.0134,163.0488 -42.5503,50.2901 -87.4709,101.0229 -120.8418,158.1965 16.5593,-1.27 32.9986,-5.2619 49.4586,-7.4916 28.5723,-3.872 57.3225,-6.8504 85.9734,-10.0688 16.6379,-1.8657 34.0825,-5.0592 50.77,-3.3921 3.0446,2.391 3.3177,1.4313 3.3756,4.7117 0.1323,7.2599 -4.2195,16.1539 -9.0015,21.4199 -39.2616,43.2039 -86.3748,80.4261 -130.2778,118.7115 -20.7622,18.1064 -39.6711,38.1364 -59.606,57.1281 -10.7637,10.2549 -22.6816,19.2399 -33.5612,29.3914 -37.5242,35.009 -70.2539,75.3007 -106.6363,111.6707 -65.6043,65.5753 -133.9222,127.8164 -200.8667,191.9687 -4.8276,4.6248 -8.7244,7.2103 -15.6575,7.0779 -5.415,-3.0777 -6.4326,-3.7024 -9.5641,-9.0263 -0.9473,-21.8626 47.9818,-72.3388 60.425,-93.9573 50.3894,-87.5579 92.3109,-182.3094 153.6792,-262.8307 -1.2907,0.4426 -2.5772,0.9018 -3.8761,1.3238 -15.1735,4.8978 -155.4083,23.5999 -164.3891,19.1861 0.6122,-7.7564 19.1612,-29.2963 24.3901,-37.4953 43.2866,-67.8339 79.7973,-141.3848 128.4575,-205.4047 -42.029,1.0715 -85.9238,7.0573 -127.9115,10.8424 q -110.6324,10.5073 -221.5338,17.639 l -226.9818,14.2675 c -47.7212,3.2763 -95.4052,8.1493 -143.1553,10.772 l -206.2734,11.6573 c -21.0973,1.2783 -42.2856,1.0797 -63.3539,2.8378 -88.7823,7.413 -177.7383,11.9179 -266.4296,19.9307 l -126.807,10.9168 c -19.9059,1.5802 -40.5564,4.8813 -60.5243,3.8844 -8.3686,-0.4137 -18.8842,-0.5171 -24.7294,-7.0366 l 1.1459,-3.9712 c 4.356,-4.4677 7.4337,-7.8143 13.8249,-9.2125 7.2807,-1.5968 15.9305,-0.9473 23.4263,-1.5844 11.3346,-0.9638 22.7809,-3.3424 34.008,-5.1791 97.8665,-16.0091 195.8819,-27.7988 294.3648,-39.2616 l 635.938,-70.9406 c 58.9607,-6.0893 118.1819,-9.4152 177.1633,-15.4714 29.3128,-3.0115 58.2905,-7.8225 87.4875,-11.6407 19.5832,-2.5606 39.5925,-3.3756 59.0268,-6.7842 l 3.1853,-0.5874 c 50.3356,-5.9776 149.2694,-10.3915 193.1145,-25.2547 14.3668,-20.7415 26.5495,-41.7354 38.4136,-64.0075 -28.4027,5.7418 -57.7858,6.4078 -86.6312,8.927 q -75.6234,6.5692 -151.1185,14.4868 l -669.404,72.6864 c -108.3076,10.9912 -216.4581,26.4501 -324.5381,39.5884 l -427.8858,49.3593 -774.5884,83.0612 c -9.8785,1.1335 -19.06202,2.4655 -27.93943,-3.057 -1.90289,-4.9641 -2.06836,-4.811 -0.23993,-9.7668 11.09882,-10.681 93.42786,-21.8915 114.66986,-25.2878 57.5583,-9.2042 115.6338,-16.1704 173.3451,-24.5266 l 518.8978,-74.5933 1483.738,-220.3714 c 96.4766,-14.0648 193.4041,-26.0655 289.7318,-41.0859 42.1325,-6.5691 83.9712,-14.9253 125.9962,-22.1232 32.8083,-5.6218 68.1028,-6.7263 100.2906,-13.9118 0.8108,-0.182 1.6092,-0.4302 2.4159,-0.6453 z"
     id="path1"
     style="fill:#e55700;fill-opacity:1;stroke-width:4.13672" />
  <path
     fill="#E26919"
     d="m 3415.4084,1649.2358 c 1.2327,-0.1944 2.4572,-0.5171 3.7024,-0.5833 21.5978,-1.1252 55.0101,16.7372 69.8526,31.4432 30.2767,29.9954 37.4208,74.1176 37.578,114.9926 0.3392,88.4968 -50.5797,234.1549 -97.8831,309.0378 -16.4683,26.0655 -38.3598,51.0181 -60.3009,72.5953 -47.9653,47.1627 -128.8589,72.1857 -194.9388,71.8796 -22.1522,-4.1119 -44.7097,-5.1088 -64.1316,-17.9037 -23.5917,-15.5375 -38.2771,-46.534 -43.7127,-73.6874 -20.2741,-101.2876 28.6633,-277.0485 86.5029,-363.4936 43.8989,-65.6042 112.7463,-119.7291 190.8311,-135.4114 23.4345,-4.7034 47.4895,-3.8306 70.713,-8.4885 0.5957,-0.12 1.1914,-0.2524 1.7871,-0.3806 z m -178.2844,478.4944 c 45.6777,-15.1321 70.0058,-51.1795 90.8466,-92.2985 28.0966,-55.4444 70.9943,-182.5452 53.0203,-241.8864 -1.5016,-4.9558 -3.6651,-9.8371 -5.688,-14.5902 -9.4441,-4.7986 -17.8872,-10.2508 -28.7337,-10.4825 -11.9882,4.9186 -26.1813,9.3862 -36.6761,17.0929 -30.8848,22.6817 -65.658,90.768 -80.4137,126.2776 -19.5377,47.0138 -50.3522,147.5113 -29.4576,195.551 3.8927,8.956 10.3501,15.3389 19.1778,19.4715 4.9889,2.3331 12.5633,1.1873 17.9244,0.8646 z"
     id="path2"
     style="fill:#e55700;fill-opacity:1;stroke-width:4.13672" />
  <path
     fill="#E26919"
     d="m 1587.458,1910.2422 c 5.7252,-0.6992 11.4629,-1.3238 17.2336,-1.3817 28.6509,-0.2854 56.5945,12.0213 76.5748,32.4277 27.9312,28.531 35.0298,65.7201 34.4796,104.3116 -1.7416,121.4665 -58.1002,281.9009 -146.5599,366.6871 -50.7948,48.6933 -109.5238,81.4644 -181.1552,80.3517 -28.6427,0.5046 -53.372,-1.7209 -78.1426,-17.85 -24.8452,-16.1787 -38.244,-42.0291 -43.4025,-70.5352 -16.3235,-90.2219 11.2353,-182.7272 45.6942,-265.1472 12.7039,-30.3884 27.1245,-62.5224 46.0955,-89.5517 64.81,-92.3689 121.603,-120.5151 229.1825,-139.3123 z m -149.3728,458.6381 c 37.7724,-11.7855 64.8307,-57.2977 82.4035,-90.4535 26.7811,-50.5342 56.3628,-133.7195 56.9667,-191.1827 0.1655,-15.8974 -3.6651,-32.0802 -6.9827,-47.5433 -13.1052,-7.7729 -20.7788,-11.1278 -36.2708,-10.2053 -8.8029,4.2443 -18.4456,8.3479 -26.3716,14.0731 -38.004,27.4348 -61.0828,81.3238 -75.8757,124.0065 -15.3514,44.296 -44.8917,147.1762 -24.5845,188.2001 3.3672,6.8049 9.5268,13.527 17.308,15.099 5.2536,1.0631 8.6002,0.025 13.4071,-1.9939 z"
     id="path3"
     style="fill:#e55700;fill-opacity:1;stroke-width:4.13672" />
  <path
     fill="#E26919"
     d="m 3988.8612,1570.3775 c 4.7862,-0.7529 10.0771,-0.666 14.9418,-0.7694 6.9787,-0.1489 13.9656,-0.4344 19.3144,4.6786 0.6867,13.4774 -1.8988,27.17 -5.1792,40.2089 -18.1312,72.0617 -43.1294,143.296 -64.1233,214.6544 -28.3282,96.2905 -54.9356,199.4768 -87.5992,293.8395 -1.7581,5.0675 -4.2649,12.9438 -8.3189,16.5676 -10.044,8.9684 -106.1565,20.5802 -121.2886,18.3463 -5.6467,-3.934 -6.1679,-10.0025 -7.7357,-16.5592 -7.3799,-30.8972 -9.9323,-64.0489 -14.28,-95.5293 -7.5288,-54.4972 -15.5416,-109.2591 -25.7717,-163.3219 -9.4607,19.1986 -16.307,38.2026 -22.4293,58.7042 -9.1587,30.6655 -52.5943,220.9877 -64.8638,233.4682 -10.47,10.6479 -64.5452,14.735 -80.6412,16.944 -9.2538,0.9928 -18.5408,2.8006 -27.8443,3.1357 -7.0903,0.2564 -11.1319,-1.1252 -16.3648,-5.7873 0.2068,-18.2595 5.1543,-36.519 9.4772,-54.1745 11.7772,-48.0769 28.0221,-94.9088 40.7095,-142.7665 l 53.4629,-197.971 c 11.0988,-41.7684 31.9314,-134.4392 50.2736,-167.6364 33.2137,-20.9732 89.2125,-20.1417 127.2579,-19.335 8.6664,22.4954 10.3749,48.4864 14.9418,72.1568 12.0627,62.5017 27.1866,126.9352 33.2096,190.1898 13.8332,-24.1254 19.575,-53.7029 27.5878,-80.1738 13.3161,-43.994 27.1783,-87.7812 39.7456,-131.9986 6.0438,-21.2503 11.0037,-52.9872 24.3612,-70.7834 7.0282,-9.3655 75.433,-13.5974 91.1567,-16.0877 z"
     id="path4"
     style="fill:#e55700;fill-opacity:1;stroke-width:4.13672" />
  <path
     fill="#E26919"
     d="m 2716.1124,1124.1537 c 22.3094,-4.3146 53.1197,-2.7882 75.0195,4.1201 23.24,7.3344 43.0343,21.7881 54.2779,43.7128 19.8562,38.7155 13.6305,92.2281 0.4757,132.0399 -25.5567,77.3443 -74.7299,133.6699 -147.2342,170.3915 0.054,0.5874 0.095,1.1748 0.1614,1.7581 0.1117,0.9722 0.2565,1.9401 0.3681,2.9123 2.7758,24.4811 15.8809,49.6944 24.3405,72.951 q 10.1929,28.7999 19.2647,57.9762 c 4.1367,13.0513 9.4731,27.1079 9.9985,40.8873 0.2606,6.8297 -0.8315,11.0699 -5.4977,16.3111 -20.4644,7.7977 -108.9985,18.7559 -135.3163,19.9845 -4.2732,-56.6193 -21.9163,-111.0999 -26.3302,-167.4379 q -6.1224,0.083 -12.2406,0.3185 c -10.4328,0.4261 -14.5819,1.3072 -21.8832,9.2332 -22.8595,41.1066 -29.5693,135.1135 -52.0937,165.9652 -7.413,10.1556 -92.5012,20.5554 -108.9447,22.8099 -3.6982,-1.3196 -7.6736,-2.5607 -11.1567,-4.3643 -4.265,-2.2048 -6.5195,-4.6869 -7.4999,-9.4317 -1.6381,-7.9549 1.1872,-19.2275 3.0364,-27.141 14.2841,-61.2524 34.8932,-121.785 51.225,-182.6114 28.1503,-104.8658 53.6863,-210.8072 84.1657,-314.9947 2.1387,-7.3095 4.6331,-16.3896 9.349,-22.4334 3.7395,-4.7862 11.5497,-6.809 17.2832,-8.1493 24.9403,-5.8411 52.2964,-7.4254 77.7579,-10.6604 33.8921,-4.3104 67.6064,-9.8123 101.4737,-14.1475 z m -90.6934,131.8083 c -23.6455,43.9319 -33.0069,95.9471 -42.298,144.628 8.0749,-0.6578 18.0609,-0.3558 25.565,-3.3839 36.2335,-10.3707 67.9414,-26.8969 87.2641,-61.0373 11.7648,-20.7911 23.1077,-53.4092 16.2614,-76.9181 -2.0187,-6.9373 -5.7418,-13.5561 -12.3812,-16.9109 -4.691,-2.3704 -8.6499,-3.0157 -13.9201,-2.904 -21.0765,3.268 -41.1975,7.0076 -60.4912,16.5262 z"
     id="path5"
     style="fill:#e55700;fill-opacity:1;stroke-width:4.13672" />
  <path
     fill="#E26919"
     d="m 858.6176,2025.6442 c 2.9288,-0.7487 6.23404,-0.8025 9.24557,-1.0921 l 3.20596,2.8999 c 5.42738,23.2773 -8.30653,66.1213 -17.20462,88.5175 -2.98671,7.5206 -7.23098,14.5861 -14.03589,19.2482 -16.87368,11.5497 -102.85127,22.5244 -128.75127,25.6269 -15.4672,1.8533 -42.9557,1.5058 -56.34213,9.2746 -14.99147,8.6995 -33.83837,90.1598 -42.50893,111.6997 30.93439,-1.6671 160.77362,-24.8452 179.54192,-12.7742 0.69083,2.2917 1.0259,3.1025 1.39821,5.2826 2.50271,14.7474 -22.34243,83.0819 -31.40184,94.764 -7.28063,9.3862 -17.00192,16.1125 -28.13797,20.1375 -31.53008,11.4008 -110.69863,17.2501 -147.61058,21.3662 -19.28125,35.1621 -21.61436,77.8986 -35.80745,115.2904 79.18509,-11.8311 159.43746,-25.9249 239.62778,-25.3871 -5.88242,27.2569 -11.11537,55.3617 -21.49853,81.3279 -3.39625,9.6717 -7.20203,24.6838 -14.31306,32.0182 -5.84932,6.0397 -18.35049,8.2073 -26.38813,9.8661 -73.1579,15.0908 -148.96743,22.2721 -223.01471,31.8362 -35.45169,4.5752 -72.26023,14.0607 -107.87118,14.8963 -8.42237,0.1945 -15.80765,0.058 -22.02431,-5.9775 -1.03915,-6.3995 -0.30033,-11.3429 1.23936,-17.6348 4.13465,-16.8985 11.41445,-33.1269 16.06578,-49.9634 L 518.71159,2143.669 c 3.54517,-12.3605 13.3492,-61.1283 18.93791,-67.8505 13.86215,-16.6627 197.90896,-37.64 229.61692,-40.9039 27.97663,-2.8791 59.99485,-2.3414 87.28892,-8.3313 1.35685,-0.2979 2.70956,-0.6247 4.06226,-0.9391 z"
     id="path6"
     style="fill:#e55700;fill-opacity:1;stroke-width:4.13672" />
  <path
     fill="#E26919"
     d="m 1035.6692,1293.6392 c 3.9009,-0.9887 6.1968,-1.6795 10.226,-0.6619 3.57,0.906 4.6,2.6972 6.0851,6.081 8.3065,18.9503 -12.9976,93.3327 -22.2969,110.3801 -2.6972,4.9434 -6.3747,9.8744 -11.6242,12.2902 -29.97881,13.8001 -102.02392,13.2375 -138.34432,18.396 -12.37707,1.7622 -24.28255,5.4357 -36.19217,9.1297 -10.66033,20.3444 -16.79508,43.7707 -24.80791,65.294 -7.47919,20.0838 -16.45587,39.5264 -23.59585,59.755 30.80616,-1.3693 143.92476,-22.1439 162.32489,-13.0597 4.03744,16.4063 -10.92507,69.3439 -16.54688,87.3717 -3.05703,9.804 -7.54951,20.3402 -15.69471,26.9962 -32.41534,26.4916 -118.43016,12.6749 -154.20865,32.6181 -24.39424,13.5974 -38.50045,91.4008 -47.01796,119.3319 0.43436,-0.062 0.86871,-0.1489 1.30307,-0.1861 61.90601,-4.9724 122.37659,-22.5782 184.98998,-22.421 -1.15415,33.0565 -11.2767,69.5754 -19.98863,101.5109 -1.27825,4.3436 -2.9288,8.9767 -5.02198,12.9852 -3.88024,7.4254 -11.69451,11.9468 -19.55428,14.0317 -11.30565,2.9992 -23.64549,2.2049 -35.22417,3.719 q -55.92018,7.7232 -111.97273,14.4537 c -49.03668,6.0644 -98.56977,16.6213 -147.70986,20.3154 -7.93423,0.5998 -15.5458,1.1583 -22.71473,-2.7344 -1.95254,-6.718 -1.52232,-11.9261 0.0538,-18.7517 5.44806,-23.6124 13.9573,-46.9311 20.41885,-70.3325 23.2401,-84.1906 48.7347,-167.1442 73.40196,-250.859 l 55.53547,-184.8535 c 9.72956,-32.374 17.10947,-66.9652 29.90848,-98.1933 21.07659,-15.9181 262.17704,-45.3178 308.26833,-52.6067 z"
     id="path7"
     style="fill:#e55700;fill-opacity:1;stroke-width:4.13672" />
  <path
     fill="#E26919"
     d="m 2490.0986,1794.1906 c 0.6205,-0.1448 1.2286,-0.3682 1.8615,-0.4426 4.7283,-0.5419 7.2062,0.2565 11.0699,2.8295 4.0167,8.3107 1.2451,19.8356 -0.4923,28.5889 -6.7511,33.9997 -19.215,66.5267 -29.2342,99.6205 q -24.1253,80.2358 -45.6363,161.2121 c -8.5713,31.1991 -19.5873,61.5378 -30.8103,91.86 -28.4068,76.7651 -58.245,137.9224 -132.6315,179.3806 -49.1028,27.3644 -124.6394,43.0839 -179.5295,26.2557 -25.8959,-7.9383 -47.3365,-24.9609 -60.0486,-48.9911 -36.4983,-68.9923 15.0535,-197.4995 36.8457,-266.3179 l 36.1674,-118.211 c 6.6146,-21.0434 21.4944,-89.4317 35.1414,-101.9453 5.7542,-5.2784 13.5891,-8.3644 21.0683,-10.2342 20.1128,-5.0261 95.8768,-12.1992 117.4663,-11.8765 -13.738,76.6782 -113.3502,360.453 -108.4772,407.3428 0.8687,8.3603 3.7644,17.1384 10.6852,22.4044 9.0263,6.8711 18.0609,4.931 28.4192,3.6238 14.9667,-10.6769 32.3988,-22.3838 42.3021,-38.1819 23.1119,-36.883 37.7973,-103.5711 50.0295,-146.2703 24.6714,-86.1555 46.6209,-173.4858 73.5302,-258.9256 38.3143,-19.9431 81.6961,-13.1878 122.2732,-21.7219 z"
     id="path8"
     style="fill:#e55700;fill-opacity:1;stroke-width:4.13672" />
  <path
     fill="#E26919"
     d="m 3370.103,1020.6198 c 0.8026,-0.1696 1.601,-0.3764 2.4118,-0.5046 30.7978,-4.8111 79.5863,-1.7044 105.4574,16.5634 18.3587,12.9603 31.7203,32.4153 35.5427,54.6957 3.2762,19.0992 -1.9898,93.1755 -15.3721,106.173 -12.9562,12.5798 -97.7796,14.5903 -120.8584,18.3795 -0.046,-17.1757 2.3331,-46.2609 -10.0564,-59.8335 -4.6372,-5.0841 -10.1432,-7.4916 -16.944,-7.7398 -18.0526,-0.6619 -36.2376,10.9581 -48.9539,22.7271 -61.513,56.9502 -103.6662,192.5271 -105.6394,274.6286 -0.422,17.5314 0.8604,37.3835 14.0483,50.4514 10.5279,10.4328 26.4584,7.7274 40.0103,7.3592 20.1458,-13.9655 40.0683,-30.3138 54.4682,-50.3604 10.9706,-15.281 20.2451,-31.8114 32.8745,-45.8266 16.7165,-5.8989 33.5736,-2.3041 50.7989,-4.0043 15.1363,-1.4934 30.3594,-7.0862 45.6818,-6.0893 6.1472,0.4013 12.6584,2.5027 16.2119,7.9218 5.0095,7.6406 2.9577,16.9689 1.5802,25.3126 -9.8206,24.4853 -20.2493,47.1876 -36.2501,68.3138 -49.9261,65.9145 -116.5604,112.4278 -199.1913,123.4273 -38.7446,5.1544 -78.2709,3.8555 -110.3181,-21.4571 -32.0099,-25.2837 -44.3043,-59.6929 -48.2135,-99.1158 -10.9788,-110.7773 37.5201,-274.6865 109.0895,-361.4997 54.2158,-65.7656 116.7299,-111.1661 203.6217,-119.5223 z"
     id="path9"
     style="fill:#e55700;fill-opacity:1;stroke-width:4.13672" />
  <path
     fill="#E26919"
     d="m 1346.7671,1955.7295 c 2.5606,-0.4261 1.0425,-0.4385 4.4801,0.8687 0.087,0.6578 0.2399,1.3072 0.2606,1.9733 0.6991,23.5255 -50.4266,101.5978 -63.4945,127.171 l -105.4367,211.3119 c -16.8985,33.524 -35.4186,66.1255 -51.8373,99.9184 -18.5739,38.2481 -31.8734,80.3971 -51.6345,117.6607 -3.0529,5.7583 -7.3965,10.1267 -12.0875,14.5654 -53.281,13.5601 -109.07291,23.2111 -163.49146,31.1536 -1.74984,-40.4447 1.35684,-80.4757 3.37556,-120.7922 1.14587,-22.9423 0.18201,-45.9714 0.9349,-68.9302 0.64946,-19.7859 3.04462,-39.485 3.5493,-59.275 0.87285,-34.2728 -4.01675,-100.3734 1.88635,-129.6945 4.08294,-33.4743 3.26387,-68.2972 2.34138,-101.9453 -0.39299,-14.3999 -2.65164,-29.9705 -0.91421,-44.2133 0.66187,-5.4398 2.209,-10.743 5.80381,-14.9956 12.83211,-15.1941 106.56607,-20.1872 129.74827,-21.7509 0.939,39.2699 -4.9972,80.331 -7.3014,119.6588 -5.0881,86.776 -10.0936,173.2003 -11.107,260.1252 8.5795,-15.8767 14.8466,-32.4732 22.8512,-48.5733 45.2557,-91.0782 86.1431,-184.2537 130.8775,-275.6297 10.7266,-21.9122 18.6153,-51.1588 33.1062,-70.3656 15.4383,-20.4602 97.3867,-22.5368 124.1057,-27.4719 z"
     id="path10"
     style="fill:#e55700;fill-opacity:1;stroke-width:4.13672" />
  <path
     fill="#E26919"
     d="m 1674.3085,1277.4026 c 10.7223,-1.7292 21.5812,-1.754 32.4194,-2.0932 1.4189,7.1565 2.904,14.3751 3.479,21.6599 2.1222,26.7273 -2.3662,56.4993 -21.1593,76.8271 -6.958,7.5247 -15.1404,13.0431 -24.8245,16.427 -23.5586,8.2403 -107.5257,15.2396 -135.0804,15.6947 -0.1738,0.2771 -0.3434,0.5584 -0.5212,0.8356 -21.7592,33.9459 -22.0984,75.3255 -39.001,111.0089 44.1677,-12.8156 95.3472,-19.3309 141.3145,-18.5987 -5.3281,32.8042 -14.4703,65.3146 -21.2504,97.9079 -4.9309,6.1182 -10.5321,10.6272 -16.6503,15.5209 -31.2115,1.5141 -80.9845,8.0997 -110.1319,18.9173 -48.1721,17.8706 -37.3546,69.3397 -56.4372,108.2166 -0.3186,0.6453 -0.6495,1.2823 -0.9763,1.9277 3.1811,3.9423 135.5893,-23.2319 157.7786,-17.9244 4.3601,13.4898 -9.7792,61.0952 -13.8166,76.8395 -1.3858,8.5837 -2.391,17.8913 -8.563,24.5101 -3.5328,3.7851 -7.3468,5.5804 -12.2737,6.867 -36.6513,9.5806 -82.5606,12.799 -120.5812,18.6111 -52.4991,8.0252 -104.9403,22.2679 -158.242,21.726 0.2317,-39.1499 14.735,-89.0388 24.175,-127.5351 16.0836,-65.5753 36.6969,-130.7906 54.6668,-195.9605 18.7104,-67.8712 35.2407,-137.5997 57.1943,-204.4367 2.7716,-8.4348 6.4946,-19.0703 11.9882,-26.1317 11.8806,-15.281 223.0478,-34.4796 256.4932,-40.817 z"
     id="path11"
     style="fill:#e55700;fill-opacity:1;stroke-width:4.13672" />
  <path
     fill="#E26919"
     d="m 1976.3966,1227.3855 c 17.2666,-4.5504 45.1895,1.423 60.756,8.9726 21.4199,10.3873 36.9616,29.0976 43.903,51.8124 6.8835,22.5327 11.0202,63.9082 -1.3072,84.7779 -3.4707,5.8742 -8.4927,10.6645 -14.6688,13.5974 -25.6435,12.1702 -84.7821,21.2752 -114.7361,28.3738 -0.4012,-13.5602 1.1211,-32.4898 -3.0984,-45.1523 -2.0808,-6.2465 -5.5308,-10.8672 -11.7276,-13.5436 -10.379,-4.4843 -25.3333,0.4798 -34.5706,5.5101 -53.2395,28.986 -84.1698,108.2166 -100.3444,162.6103 -8.5878,28.8784 -29.8712,124.6725 -14.1269,151.4494 5.1999,8.8319 14.3089,16.2656 24.477,18.3919 46.3437,9.6841 67.8794,-67.7264 96.944,-84.145 13.9077,-7.8557 100.8574,-17.2501 115.7082,-12.2695 1.0011,1.8946 1.8657,3.2514 2.2918,5.4646 2.7716,14.313 -10.6562,34.4671 -16.9068,46.7077 -5.3157,11.2601 -11.0699,22.6858 -17.7838,33.1682 -39.3691,61.4675 -104.7955,108.4193 -176.3194,123.1874 -36.4321,7.5205 -87.322,10.1846 -119.1541,-11.6283 -25.6269,-17.5645 -41.363,-44.0644 -46.3271,-74.5644 -2.8585,-17.5356 -2.027,-36.2377 -1.9112,-54.0008 0.7198,-111.6583 37.4125,-229.6293 104.0592,-320.029 36.2998,-49.2353 104.1378,-95.1529 163.1605,-109.9209 20.4727,-5.1213 40.9908,-5.5598 61.6827,-8.7699 z"
     id="path12"
     style="fill:#e55700;fill-opacity:1;stroke-width:4.13672" />
  <path
     fill="#E26919"
     d="m 2439.5189,1165.6656 c 1.783,-0.2771 3.5742,-0.5212 5.3695,-0.6949 10.5238,-1.0218 21.9867,-2.7964 30.6448,4.1615 0.5998,2.6641 1.1087,5.0551 1.088,7.806 -0.1448,19.2358 -9.3614,41.0942 -15.3638,59.213 -4.1533,12.5508 -9.7254,34.4465 -19.7735,43.2205 -19.1158,16.704 -73.4558,1.9194 -95.3556,16.5965 -9.2993,6.2299 -15.2107,24.812 -18.3835,35.2945 -15.3845,50.861 -95.6824,389.7783 -113.4785,405.4647 -16.2325,14.3089 -102.8637,20.0466 -125.3344,19.9969 2.0477,-22.0115 6.7884,-42.149 13.5271,-63.1842 9.9902,-50.3522 25.8421,-99.5378 38.9679,-149.1081 20.0258,-75.6275 38.7569,-151.6108 59.2999,-227.1101 -34.4382,0.633 -68.9633,13.6388 -102.992,12.7618 -0.3185,-0.4674 -0.7032,-0.8976 -0.9555,-1.4065 -4.3808,-8.7202 -0.9846,-32.0223 2.0849,-41.3258 6.5732,-19.8976 5.75,-48.2672 17.3949,-65.4553 5.4232,-8.0046 18.2595,-11.4753 27.2692,-13.5064 24.0592,-5.415 50.1826,-6.1596 74.7257,-9.5517 38.3599,-5.3033 76.4963,-12.1992 114.8354,-17.6679 34.4878,-4.9186 69.6334,-8.1701 103.7944,-14.9708 z"
     id="path13"
     style="fill:#e55700;fill-opacity:1;stroke-width:4.13672" />
  <path
     fill="#E26919"
     d="m 2901.7147,1740.3057 c 3.603,-0.9721 4.3973,-0.7363 7.897,0.083 2.089,3.901 2.3951,7.0655 1.9856,11.4629 -2.1759,23.178 -14.946,72.3595 -26.7356,92.0834 -2.8957,4.8441 -7.7936,8.6002 -12.1041,12.133 -34.1817,5.1543 -68.9426,13.4443 -103.6414,11.6572 -9.7171,38.2523 -118.8479,420.0012 -126.7325,429.6026 -9.9861,12.1702 -101.1304,24.1501 -117.8593,22.7767 -5.1916,-0.426 -8.1824,-0.4674 -11.5621,-4.7034 0.3805,-21.8874 10.2135,-53.8725 16.249,-75.8551 9.7916,-38.3929 104.0675,-341.966 101.4158,-350.3015 -23.571,-1.3817 -76.7444,21.2834 -96.2035,9.8991 -2.5193,-1.4726 -2.0477,-1.5926 -2.9702,-4.6 -5.7542,-18.8014 4.8317,-77.6917 14.7929,-95.0329 4.6331,-8.0583 11.1898,-13.4774 19.9183,-16.6337 15.6616,-5.6632 36.2915,-5.1461 52.9045,-7.6364 70.3201,-10.5238 140.6071,-21.4406 211.4567,-28.0015 21.1221,-1.9566 47.3489,-0.455 67.3996,-5.8493 1.27,-0.3392 2.5276,-0.7239 3.7893,-1.0838 z"
     id="path14"
     style="fill:#e55700;fill-opacity:1;stroke-width:4.13672" />
  <path
     fill="#E26919"
     d="m 1948.8915,1868.908 c 1.3734,-0.426 3.388,-0.1861 4.84,-0.1902 0.8439,3.8388 1.2162,3.1811 0.5543,6.2133 -10.2342,46.7491 -25.9455,93.2169 -38.6039,139.4282 -17.6886,64.5659 -33.1434,129.9674 -51.8372,194.2438 -5.1833,17.8292 -25.2671,65.2774 -23.7779,81.3899 20.9112,17.9906 110.0616,-22.3507 139.9908,-11.256 3.086,1.1459 3.0611,2.5896 4.4925,5.2826 -5.4977,23.9599 -27.8898,104.8369 -41.3548,120.8708 -2.5772,3.0736 -6.4244,6.6436 -10.3129,7.806 -17.73,5.3157 -41.2389,2.904 -60.1272,5.204 -13.6181,1.6589 -26.9176,4.8731 -40.5895,6.3582 -44.6063,11.318 -114.0701,19.3143 -160.1573,18.8014 0.8026,-14.371 3.2681,-28.7213 6.4782,-42.7406 9.1628,-39.9938 22.2431,-79.2306 32.9407,-118.8521 13.9531,-51.6883 94.4206,-370.7205 111.7286,-389.981 12.2819,-13.6719 104.1875,-18.9834 125.7356,-22.5783 z"
     id="path15"
     style="fill:#e55700;fill-opacity:1;stroke-width:4.13672" />
  <path
     fill="#E26919"
     d="m 1215.1284,1339.0811 c 5.2412,-1.5016 12.224,-1.5927 17.6059,-0.8977 5.448,0.7033 7.6116,2.4283 10.7265,6.6808 1.2989,33.6357 -46.8277,169.2622 -59.4364,211.3037 l -66.1048,226.1214 c 33.1269,-15.6286 94.5241,-18.4333 131.3409,-18.5739 -0.5006,19.2316 -14.5695,97.6804 -25.1926,110.3511 -12.7701,15.2314 -83.4294,16.7868 -105.929,21.5772 l -3.5452,0.7777 c -47.7667,8.2279 -115.98949,21.4571 -162.94954,21.6309 0.23166,-7.4709 0.91835,-14.9625 2.602,-22.2597 8.09142,-35.0711 21.0559,-69.5672 30.64068,-104.3405 l 55.84986,-198.7777 c 10.2922,-37.5531 51.8455,-206.0955 67.3086,-228.9467 13.4484,-19.8687 82.6558,-21.1014 107.0831,-24.6466 z"
     id="path16"
     style="fill:#e55700;fill-opacity:1;stroke-width:4.13672" />
  <path
     fill="#E26919"
     d="m 3052.2913,1074.6413 c 15.161,-2.0849 30.9757,-1.6175 46.2857,-1.8988 -0.099,10.0357 -0.8149,19.9886 -2.9867,29.8051 -4.9227,22.2514 -12.9479,43.8658 -18.9586,65.8524 -16.6627,60.9174 -119.8945,447.6965 -138.6215,470.1755 -12.6087,15.1362 -74.9822,17.9988 -96.5345,20.8573 -8.8732,1.15 -18.7103,2.7178 -27.6457,1.9939 -5.5514,-0.4509 -7.5453,-2.2628 -11.1815,-6.1927 -1.5223,-29.9539 49.1194,-181.0973 60.5616,-221.5213 17.6058,-62.1956 33.8135,-124.9372 50.8568,-187.3024 6.1306,-22.4293 31.9479,-138.4147 41.512,-150.5146 12.4846,-15.794 73.3192,-16.2614 94.2055,-20.6588 0.8398,-0.1737 1.6712,-0.3971 2.5069,-0.5956 z"
     id="path17"
     style="fill:#e55700;fill-opacity:1;stroke-width:4.13672" />
  <path
     fill="#E26919"
     d="m 3060.1924,1711.7913 c 9.8247,-1.6878 20.0217,-1.8409 29.9664,-2.4241 0.062,16.5634 -2.5689,32.556 -6.4243,48.623 -11.3098,47.1462 -136.7062,482.1885 -149.075,494.9958 -13.1589,13.6263 -75.3214,21.5936 -95.1777,22.0156 -2.7716,0.7446 -5.5101,1.2493 -8.3603,1.6298 -7.4088,0.9929 -14.1103,-0.5626 -19.79,-5.146 -2.3249,-11.9386 1.0465,-25.8297 3.9009,-37.5615 7.4254,-30.5662 18.2016,-60.6856 26.7894,-90.9912 12.7369,-44.9414 107.5299,-392.8188 118.7487,-408.9727 15.9677,-22.9961 72.8352,-15.248 97.126,-21.4448 0.7777,-0.1986 1.5306,-0.484 2.2959,-0.7239 z"
     id="path18"
     style="fill:#e55700;fill-opacity:1;stroke-width:4.13672" />
  <path
     fill="#E26919"
     d="m 2682.5926,2733.0233 c 0.8025,-0.1406 1.5968,-0.3226 2.4034,-0.4219 23.3104,-2.8957 50.6459,-2.3621 69.8196,12.7659 17.3659,13.705 25.7924,34.6037 27.8318,56.1312 4.6952,49.6448 -20.8159,111.9272 -52.0606,149.5962 -19.2357,23.1904 -41.392,39.1789 -72.2271,42.0828 -26.111,0.4758 -57.4011,4.1947 -79.5864,-12.2281 -16.1994,-11.9965 -25.6352,-31.2571 -28.5185,-50.9024 -7.1855,-48.958 8.563,-102.7064 37.52,-142.2411 23.5711,-32.1836 55.7961,-48.8422 94.8178,-54.7826 z m -70.3118,182.719 c 4.5049,9.3986 9.047,18.0402 19.5377,21.5854 7.4585,2.5234 16.1663,1.7126 23.8854,1.2286 32.2375,-22.359 50.8279,-50.3646 57.9596,-89.1008 2.6516,-14.3875 4.6455,-32.7339 -4.2856,-45.3592 -4.2112,-5.9568 -13.0762,-12.5177 -20.4768,-13.4774 -4.0416,-0.5254 -8.29,-0.1489 -12.344,0.037 l -3.0818,0.1241 c -0.6164,0.029 -1.2328,0.079 -1.8491,0.12 q -2.8337,2.1552 -5.5639,4.447 -2.7303,2.2876 -5.3447,4.7034 -2.6144,2.4159 -5.113,4.9558 -2.4985,2.54 -4.873,5.1957 -2.3704,2.6558 -4.6166,5.4191 -2.2421,2.7675 -4.3518,5.6384 -2.1098,2.8667 -4.0788,5.8369 -1.9733,2.966 -3.7975,6.0231 -1.8243,3.057 -3.5038,6.2009 -1.6754,3.1398 -3.2019,6.3581 -1.5264,3.2184 -2.8957,6.5071 -1.3734,3.2887 -2.5813,6.6353 -1.212,3.3507 -2.2628,6.7553 -1.0507,3.4004 -1.9401,6.8504 -0.8853,3.45 -1.605,6.9373 -0.7198,3.4872 -1.2742,7.0076 c -1.4726,9.6385 -2.0269,19.6287 -2.3413,29.3707 z"
     id="path19"
     style="fill:#e55700;fill-opacity:1;stroke-width:4.13672" />
  <path
     fill="#E26919"
     d="m 1231.8532,2844.7189 c 27.7036,-3.814 64.3549,-3.8595 88.8153,10.4701 12.2323,7.1648 23.1988,17.6431 26.413,31.9106 6.9828,30.9841 -17.0019,42.3104 -29.7389,65.1037 -8.716,15.6037 5.6632,28.6675 9.6055,43.1915 5.2412,19.3144 1.6836,42.6744 -9.2125,59.4488 -13.5891,20.9194 -36.0267,32.1175 -59.8501,36.7713 -32.6718,3.8389 -94.0441,18.0982 -123.5721,7.2848 2.4283,-36.428 30.6159,-216.3505 44.4946,-244.7987 11.0947,-10.5983 36.2832,-5.5804 51.1754,-8.927 0.6246,-0.1407 1.2451,-0.302 1.8698,-0.4551 z m 8.6705,196.5315 c 7.0159,-3.1398 14.1145,-6.1596 21.0601,-9.4483 l 9.2124,-16.4311 -10.8092,-20.8118 c -9.5517,-0.9349 -19.4012,-1.3982 -28.804,-3.297 -6.1885,1.299 -10.4617,1.179 -15.0618,5.6425 -0.9887,16.3897 -1.1955,34.4961 -9.593,49.1029 9.7585,3.4707 24.4273,-1.663 33.9955,-4.7572 z m 18.5325,-107.3727 c 6.3871,-1.7664 13.7381,-8.4224 16.3442,-14.6399 1.5927,-3.8016 1.0176,-8.6706 -1.2451,-11.9965 -3.3839,-4.9847 -8.5506,-8.7119 -14.6606,-9.4069 -6.4243,-0.7281 -13.3078,-0.2441 -19.7652,-0.1034 -7.6116,7.9094 -15.9181,15.2397 -16.096,27.0252 -0.054,3.7437 1.2369,7.6777 4.1905,10.0729 5.0799,4.116 11.8062,4.5297 18.0361,3.4542 4.5463,-0.7902 8.9395,-2.6765 13.1961,-4.4056 z"
     id="path20"
     style="fill:#e55700;fill-opacity:1;stroke-width:4.13672" />
  <path
     fill="#E26919"
     d="m 2465.692,2749.1772 c 16.5303,-0.7115 33.1682,-0.666 49.7151,-0.9845 -1.4148,34.7567 -35.5345,218.1168 -48.3542,245.8494 -2.4075,5.2123 -5.4191,8.5672 -11.074,10.2343 -10.8216,3.1935 -34.2355,3.3755 -44.0147,-1.6671 -7.6198,-15.1115 13.3947,-84.2733 18.2802,-104.3157 -14.8053,-0.4716 -33.7349,-2.9164 -47.2703,4.0871 -6.6849,3.4583 -10.6851,8.5257 -13.4485,15.4506 -8.4182,21.1221 -8.0997,61.4841 -15.6699,86.987 -0.2234,0.7528 -0.4674,1.5016 -0.6991,2.2545 -0.7942,0.8356 -1.5678,1.6919 -2.3786,2.511 -8.8402,8.8898 -27.3023,9.8785 -39.2575,9.775 -6.9207,-0.058 -11.8393,-0.848 -16.9274,-5.961 -2.7882,-16.1497 37.5366,-226.0304 48.5899,-251.8228 13.9407,-8.8815 44.2215,-5.1171 60.665,-5.0634 -0.037,0.7116 -0.062,1.4189 -0.1076,2.1305 l -0.2606,3.541 c -1.9318,29.0315 -12.8279,56.8716 -15.5044,86.2216 15.9512,-0.1778 38.4508,0.5957 51.0926,-10.4907 13.8332,-12.133 7.3262,-37.3463 9.3862,-53.6863 1.7788,-14.1228 6.1058,-26.0738 17.2378,-35.0505 z"
     id="path21"
     style="fill:#e55700;fill-opacity:1;stroke-width:4.13672" />
  <path
     fill="#E26919"
     d="m 1675.1193,2807.1741 c 18.5531,-0.997 38.5873,-2.1801 57.0495,-0.1407 l 1.605,2.8502 c -1.8243,26.4461 -59.7839,89.9488 -76.1032,116.9285 -2.147,45.8101 36.5148,82.2049 42.1697,126.4141 0.6371,4.9806 1.1086,5.4522 -2.1097,9.5227 -17.5314,5.7707 -38.3474,5.0716 -56.6772,4.9227 -17.6886,-25.6477 -24.6383,-57.2067 -37.0485,-85.3364 -2.1056,-4.7738 -3.4914,-7.3716 -8.4058,-9.4441 -0.5916,0.3226 -1.2369,0.5626 -1.7788,0.9638 -12.4846,9.2994 -16.7579,48.0397 -19.5791,63.4118 -1.1583,8.3479 -0.9514,20.9235 -5.1461,28.2083 -1.9649,3.4211 -5.5804,5.4398 -9.4482,6.052 -11.9262,1.8781 -37.5284,3.1894 -47.2083,-4.1988 -2.2959,-19.7238 36.1301,-228.7978 44.5732,-247.2641 13.1258,-8.7657 36.0184,-5.7252 51.5352,-5.6715 0.8894,18.3216 -0.1903,38.5543 -3.7933,56.5573 -2.3538,11.7607 -8.0915,23.6289 -7.7233,35.6626 15.4217,2.4035 50.1991,-84.5669 76.1818,-98.4539 0.6288,-0.3392 1.27,-0.6536 1.9071,-0.9845 z"
     id="path22"
     style="fill:#e55700;fill-opacity:1;stroke-width:4.13672" />
  <path
     fill="#E26919"
     d="m 2170.599,2769.8898 c 9.0305,-0.5667 18.2264,-1.1624 27.2652,-0.5005 18.2346,1.3403 42.3889,10.0853 53.9056,25.0478 4.5793,5.9527 6.0809,12.6501 4.6331,20.0217 -3.0571,15.612 -20.5885,24.568 -32.8414,32.1051 -7.9384,-5.7087 -15.3721,-10.0646 -24.8865,-12.6666 -15.6865,-4.2981 -35.2656,-4.3105 -49.438,4.3849 -5.8534,3.5865 -7.7605,6.9042 -9.44,13.4071 0.7446,1.9484 0.997,4.1657 2.2338,5.8452 5.0965,6.9083 42.1367,11.3098 51.6842,14.6564 q 7.3055,2.4986 14.1435,6.081 6.838,3.5824 13.0472,8.1658 c 15.4134,11.3802 30.3221,27.7037 32.3533,47.5806 2.1635,21.1717 -8.8567,41.8802 -22.2225,57.5045 -21.0352,24.5928 -60.6733,36.9699 -92.1537,39.001 -11.558,0.1862 -25.2464,1.5885 -36.519,-0.7239 -16.2655,-3.3383 -35.5592,-19.0537 -44.3952,-32.8042 -4.0251,-6.2671 -6.7677,-13.9862 -4.2567,-21.3868 5.6714,-16.7082 35.0214,-26.2599 49.4834,-34.6202 8.9767,13.6139 16.6627,23.4965 29.7306,33.2344 10.5197,1.6299 21.2049,1.8325 31.8279,2.3414 5.2537,-6.4244 10.7514,-12.9107 14.4165,-20.4147 2.8295,-5.7915 3.086,-9.8537 1.2328,-15.9223 -15.1198,-15.9429 -49.3346,-13.9697 -69.7989,-24.5183 -13.2913,-6.8504 -21.9908,-17.2046 -25.9828,-31.6459 -5.8782,-21.2421 -2.937,-49.1401 8.9064,-67.9167 17.4446,-27.654 46.5422,-39.1665 77.0712,-46.2568 z"
     id="path23"
     style="fill:#e55700;fill-opacity:1;stroke-width:4.13672" />
  <path
     fill="#E26919"
     d="m 2938.5232,2724.6299 c 21.6971,-2.573 46.2278,-2.7467 63.8709,12.0089 13.7298,11.4794 19.9225,28.6344 20.6381,46.1534 1.1294,27.6912 -10.077,56.8758 -29.6892,76.4673 -27.4016,27.3727 -58.4767,26.8639 -94.3669,27.0583 -13.072,18.3257 -18.3504,35.0049 -22.9132,56.6813 -0.6702,5.0137 -1.3279,10.0564 -2.3042,15.0205 -1.1293,5.7583 -2.8626,11.0698 -8.654,13.8042 -10.8134,5.1006 -37.3091,7.8308 -48.35,2.6268 -0.9184,-1.5595 -1.4354,-2.1925 -1.7622,-4.1946 -3.1605,-19.3144 36.0473,-214.882 46.6994,-235.5573 20.7911,-12.799 50.7948,-4.4345 74.3451,-9.4979 0.8315,-0.1779 1.6588,-0.3806 2.4862,-0.5709 z m -40.8791,106.9756 c 11.8435,-0.058 27.8443,1.9401 38.3971,-4.1698 l 17.9078,-11.8434 c 3.8844,-8.6209 8.9353,-17.6886 6.0851,-27.3396 -1.3651,-4.6331 -5.1419,-6.929 -9.44,-8.5961 -9.0097,-3.4955 -22.9298,-1.5926 -32.4443,-1.2369 -16.2986,13.5685 -17.6762,33.4992 -20.5057,53.1858 z"
     id="path24"
     style="fill:#e55700;fill-opacity:1;stroke-width:4.13672" />
  <path
     fill="#E26919"
     d="m 898.92167,2865.568 c 0.55018,-0.1572 1.08795,-0.3847 1.65055,-0.4716 8.82776,-1.3403 23.298,-3.6899 30.38834,2.8626 5.07989,4.6952 7.06138,11.7566 7.00347,18.4705 -0.50054,56.4455 -76.31421,26.1234 -101.77159,52.1392 -8.58783,8.7781 -7.01587,22.7809 -7.40059,34.2107 22.55754,-1.6961 47.60538,-7.9591 70.12568,-5.87 5.52666,0.5129 7.19789,1.9359 10.44108,6.1844 0.29784,6.2878 0.21511,12.2984 -0.72806,18.5449 -8.34377,55.188 -62.79127,18.3215 -88.60854,40.9121 -7.53711,6.594 -10.32112,21.1263 -11.29325,30.7317 2.05181,5.7377 4.34769,7.8681 8.68711,11.8848 7.97973,1.6671 72.17336,-6.3912 83.95887,-9.1463 0.33921,12.4516 -2.19246,30.5125 -8.44718,41.45 -5.3736,9.3945 -13.95729,15.1486 -24.4687,17.428 -17.49833,3.7933 -38.01646,2.4737 -55.99464,3.9257 -19.14474,1.543 -38.94308,6.3871 -58.16229,5.5887 -5.67971,-0.2358 -9.63442,-1.1252 -14.59021,-4.1036 -5.2164,-16.1539 34.27687,-216.0071 44.65176,-242.7303 20.2327,-19.5833 85.65492,-17.73 114.55819,-22.0115 z"
     id="path25"
     style="fill:#e55700;fill-opacity:1;stroke-width:4.13672" />
  <path
     fill="#E26919"
     d="m 1901.1165,2791.2518 c 7.4006,-1.241 17.6266,-2.6682 24.9652,-0.8439 6.0272,1.5017 11.9923,6.2796 14.4206,12.1372 3.0777,7.4337 2.1966,15.372 -0.9722,22.5989 -20.2699,46.2692 -61.8398,14.3751 -91.9924,28.1545 -15.1776,6.9331 -11.0822,24.9072 -16.9026,38.0413 -0.3309,0.7404 -0.6743,1.4685 -1.0135,2.2007 24.6425,0.4013 48.4286,-1.9443 72.9345,-3.1232 l 1.6589,2.8047 c 0.017,12.8073 -0.4179,34.3678 -10.015,43.9402 -15.0288,14.9956 -56.2512,10.863 -76.0867,10.408 1.9277,14.9956 0.6867,30.4628 0.1489,45.537 21.664,-0.8273 64.3715,-10.4535 83.4624,-3.2804 6.3954,2.4034 6.3996,4.1988 8.9767,10.1267 -2.7964,15.6781 -4.0457,31.2694 -17.7506,41.6112 -5.1792,3.9051 -11.4463,6.0852 -17.7838,7.2352 -16.6586,3.0198 -34.6533,1.4644 -51.5808,2.8998 -22.8553,1.9319 -48.7429,10.6645 -71.4122,6.8587 -3.4128,-6.5608 -2.8336,-14.5985 -2.2834,-21.7881 2.1842,-28.5227 10.743,-58.0754 16.0753,-86.292 9.4151,-49.8102 16.8612,-98.2719 30.5621,-147.2507 34.8808,-3.479 69.8981,-6.9414 104.5886,-11.9758 z"
     id="path26"
     style="fill:#e55700;fill-opacity:1;stroke-width:4.13672" />
  <path
     fill="#E26919"
     d="m 1438.0976,2823.7003 c 15.5665,-0.8853 31.2943,-0.7488 46.8897,-1.0301 -0.2192,44.7635 -15.0038,90.7514 -23.1532,134.6916 -7.0365,37.9544 -9.4855,83.0116 -23.0663,118.8273 -4.4967,3.2597 -6.3913,3.0984 -12.0048,3.7106 q -21.7054,2.5813 -43.3321,5.7459 c -1.3238,-14.9625 -0.2979,-30.1029 1.4064,-44.9951 4.72,-41.1852 14.2386,-81.5761 21.4696,-122.3393 4.5256,-25.5029 6.3913,-59.0393 15.8602,-82.6806 2.6806,-6.6933 9.8123,-9.0264 15.9305,-11.9303 z"
     id="path27"
     style="fill:#e55700;fill-opacity:1;stroke-width:4.13672" />
  <path
     fill="#E26919"
     d="m 1077.4666,2963.0208 c 4.1699,-0.3143 7.0656,0.3765 11.0658,1.5389 7.6653,11.9262 0.4467,38.3888 -1.0673,52.495 -34.9801,7.2806 -76.0288,9.7709 -111.71627,9.3076 -3.97125,0.1531 -8.12865,0.7529 -11.74415,-1.1955 -2.41584,-1.3031 -3.14804,-4.3187 -3.31765,-6.8835 -0.6536,-10.1557 3.10254,-30.5662 9.61788,-38.2026 14.9046,-17.4653 83.12739,-15.7444 107.16169,-17.0599 z"
     id="path28"
     style="fill:#e55700;fill-opacity:1;stroke-width:4.13672" />
</svg>
